<?xml version="1.0" encoding="utf-8"?>
<!-- Svg Vector Icons : http://www.onlinewebfonts.com/icon -->
<!DOCTYPE svg PUBLIC "-//W3C//DTD SVG 1.1//EN" "http://www.w3.org/Graphics/SVG/1.1/DTD/svg11.dtd">
<svg version="1.1" xmlns="http://www.w3.org/2000/svg" xmlns:xlink="http://www.w3.org/1999/xlink" x="0px" y="0px" viewBox="0 0 1000 1000" enable-background="new 0 0 1000 1000" xml:space="preserve">
<metadata> Svg Vector Icons : http://www.onlinewebfonts.com/icon </metadata>
<g><g transform="translate(0.000000,511.000000) scale(0.100000,-0.100000)"><path d="M1201.1,2760c-70.8-30.6-134-99.5-160.8-170.3c-15.3-38.3-21.1-778.9-21.1-2378.9v-2323.4H581c-505.2,0-489.9,5.7-476.5-162.7c9.6-112.9,45.9-179.9,137.8-246.9l51.7-40.2H5000h4706.1l51.7,40.2c91.9,67,128.2,134,137.8,246.9c13.4,168.4,28.7,162.7-476.5,162.7h-438.3l-3.8,2352.1c-5.7,2342.5-5.7,2354-45.9,2405.7c-21.1,28.7-63.2,70.8-91.9,91.9l-51.7,40.2L5023,2781C1914.9,2784.9,1248.9,2781,1201.1,2760z M8674.5,337.1v-2143.5H5000H1325.5V337.1v2143.5H5000h3674.5V337.1z M5842.1-2137.5c0-15.3-23-45.9-49.8-72.7l-49.8-45.9H5000h-742.6l-49.8,45.9c-105.3,99.5-116.7,97.6,792.3,97.6C5687.1-2112.6,5842.1-2116.4,5842.1-2137.5z"/></g></g>
</svg>