<?xml version="1.0" encoding="UTF-8" standalone="no"?>
<!DOCTYPE svg PUBLIC "-//W3C//DTD SVG 1.1//EN"
 "http://www.w3.org/Graphics/SVG/1.1/DTD/svg11.dtd">
<!-- Generated by graphviz version 2.40.1 (0)
 -->
<!-- Title: G Pages: 1 -->
<svg width="307pt" height="544pt"
 viewBox="0.00 0.00 307.00 544.00" xmlns="http://www.w3.org/2000/svg" xmlns:xlink="http://www.w3.org/1999/xlink">
<g id="graph0" class="graph" transform="scale(1 1) rotate(0) translate(4 540)">
<title>G</title>
<polygon fill="transparent" stroke="transparent" points="-4,4 -4,-540 303,-540 303,4 -4,4"/>
<g id="clust1" class="cluster">
<title>cluster_0</title>
<path fill="#e6eaf2" stroke="#e6eaf2" d="M20,-65C20,-65 130,-65 130,-65 136,-65 142,-71 142,-77 142,-77 142,-461 142,-461 142,-467 136,-473 130,-473 130,-473 20,-473 20,-473 14,-473 8,-467 8,-461 8,-461 8,-77 8,-77 8,-71 14,-65 20,-65"/>
<text text-anchor="middle" x="75" y="-457.8" font-family="Times,serif" font-size="14.00" fill="#000000">System A</text>
</g>
<g id="clust2" class="cluster">
<title>cluster_1</title>
<path fill="transparent" stroke="#0000ff" stroke-dasharray="5,2" d="M162,-65C162,-65 279,-65 279,-65 285,-65 291,-71 291,-77 291,-77 291,-461 291,-461 291,-467 285,-473 279,-473 279,-473 162,-473 162,-473 156,-473 150,-467 150,-461 150,-461 150,-77 150,-77 150,-71 156,-65 162,-65"/>
<text text-anchor="middle" x="220.5" y="-457.8" font-family="Times,serif" font-size="14.00" fill="#000000">System B</text>
</g>
<!-- a0 -->
<g id="node1" class="node">
<title>a0</title>
<ellipse fill="#ffffff" stroke="#ffffff" cx="106" cy="-424" rx="27" ry="18"/>
<text text-anchor="middle" x="106" y="-420.3" font-family="Times,serif" font-size="14.00" fill="#000000">a0</text>
</g>
<!-- a1 -->
<g id="node2" class="node">
<title>a1</title>
<ellipse fill="#ffffff" stroke="#ffffff" cx="106" cy="-313" rx="27" ry="18"/>
<text text-anchor="middle" x="106" y="-309.3" font-family="Times,serif" font-size="14.00" fill="#000000">a1</text>
</g>
<!-- a0&#45;&gt;a1 -->
<g id="edge1" class="edge">
<title>a0&#45;&gt;a1</title>
<path fill="none" stroke="#000000" d="M106,-405.6706C106,-388.2373 106,-361.7482 106,-341.5489"/>
<polygon fill="#000000" stroke="#000000" points="109.5001,-341.3566 106,-331.3566 102.5001,-341.3567 109.5001,-341.3566"/>
</g>
<!-- a2 -->
<g id="node3" class="node">
<title>a2</title>
<ellipse fill="#ffffff" stroke="#ffffff" cx="43" cy="-202" rx="27" ry="18"/>
<text text-anchor="middle" x="43" y="-198.3" font-family="Times,serif" font-size="14.00" fill="#000000">a2</text>
</g>
<!-- a1&#45;&gt;a2 -->
<g id="edge2" class="edge">
<title>a1&#45;&gt;a2</title>
<path fill="none" stroke="#000000" d="M96.4317,-296.1415C86.1169,-277.9679 69.5736,-248.8202 57.6257,-227.769"/>
<polygon fill="#000000" stroke="#000000" points="60.6384,-225.9864 52.6584,-219.0172 54.5506,-229.4417 60.6384,-225.9864"/>
</g>
<!-- b3 -->
<g id="node8" class="node">
<title>b3</title>
<ellipse fill="#e6eaf2" stroke="#e6eaf2" cx="185" cy="-91" rx="27" ry="18"/>
<text text-anchor="middle" x="185" y="-87.3" font-family="Times,serif" font-size="14.00" fill="#000000">b3</text>
</g>
<!-- a1&#45;&gt;b3 -->
<g id="edge9" class="edge">
<title>a1&#45;&gt;b3</title>
<path fill="none" stroke="#000000" d="M127.8114,-302.3268C143.5353,-292.9345 162,-277.6214 162,-257.5 162,-257.5 162,-257.5 162,-146.5 162,-136.3894 165.2979,-125.9779 169.396,-116.9431"/>
<polygon fill="#000000" stroke="#000000" points="172.6507,-118.2627 174.0389,-107.7592 166.4036,-115.1045 172.6507,-118.2627"/>
</g>
<!-- a3 -->
<g id="node4" class="node">
<title>a3</title>
<ellipse fill="#ffffff" stroke="#ffffff" cx="106" cy="-91" rx="27" ry="18"/>
<text text-anchor="middle" x="106" y="-87.3" font-family="Times,serif" font-size="14.00" fill="#000000">a3</text>
</g>
<!-- a2&#45;&gt;a3 -->
<g id="edge3" class="edge">
<title>a2&#45;&gt;a3</title>
<path fill="none" stroke="#000000" d="M52.5683,-185.1415C62.8831,-166.9679 79.4264,-137.8202 91.3743,-116.769"/>
<polygon fill="#000000" stroke="#000000" points="94.4494,-118.4417 96.3416,-108.0172 88.3616,-114.9864 94.4494,-118.4417"/>
</g>
<!-- a3&#45;&gt;a1 -->
<g id="edge4" class="edge">
<title>a3&#45;&gt;a1</title>
<path fill="none" stroke="#ff0000" d="M106,-109.5C106,-120.2917 106,-134.1667 106,-146.5 106,-257.5 106,-257.5 106,-257.5 106,-266.2682 106,-275.8157 106,-284.4804"/>
<polygon fill="#ff0000" stroke="#ff0000" points="102.5001,-284.5 106,-294.5 109.5001,-284.5 102.5001,-284.5"/>
<text text-anchor="middle" x="120" y="-198.3" font-family="Times,serif" font-size="14.00" fill="#ff0000"> &#45;10</text>
</g>
<!-- end -->
<g id="node9" class="node">
<title>end</title>
<polygon fill="none" stroke="#000000" points="172,-36 122,-36 118,-32 118,0 168,0 172,-4 172,-36"/>
<polyline fill="none" stroke="#000000" points="168,-32 118,-32 "/>
<polyline fill="none" stroke="#000000" points="168,-32 168,0 "/>
<polyline fill="none" stroke="#000000" points="168,-32 172,-36 "/>
<text text-anchor="middle" x="145" y="-14.3" font-family="Times,serif" font-size="14.00" fill="#000000">store</text>
</g>
<!-- a3&#45;&gt;end -->
<g id="edge10" class="edge">
<title>a3&#45;&gt;end</title>
<path fill="none" stroke="#000000" d="M115.2425,-73.7C119.77,-65.2254 125.3289,-54.8203 130.4115,-45.3066"/>
<polygon fill="#000000" stroke="#000000" points="133.6545,-46.664 135.2797,-36.1945 127.4804,-43.3654 133.6545,-46.664"/>
</g>
<!-- b0 -->
<g id="node5" class="node">
<title>b0</title>
<ellipse fill="#e6eaf2" stroke="#e6eaf2" cx="185" cy="-424" rx="27" ry="18"/>
<text text-anchor="middle" x="185" y="-420.3" font-family="Times,serif" font-size="14.00" fill="#000000">b0</text>
</g>
<!-- b1 -->
<g id="node6" class="node">
<title>b1</title>
<ellipse fill="#e6eaf2" stroke="#e6eaf2" cx="185" cy="-313" rx="27" ry="18"/>
<text text-anchor="middle" x="185" y="-309.3" font-family="Times,serif" font-size="14.00" fill="#000000">b1</text>
</g>
<!-- b0&#45;&gt;b1 -->
<g id="edge5" class="edge">
<title>b0&#45;&gt;b1</title>
<path fill="none" stroke="#000000" d="M185,-405.6706C185,-388.2373 185,-361.7482 185,-341.5489"/>
<polygon fill="#000000" stroke="#000000" points="188.5001,-341.3566 185,-331.3566 181.5001,-341.3567 188.5001,-341.3566"/>
</g>
<!-- b2 -->
<g id="node7" class="node">
<title>b2</title>
<ellipse fill="#e6eaf2" stroke="#e6eaf2" cx="217" cy="-202" rx="27" ry="18"/>
<text text-anchor="middle" x="217" y="-198.3" font-family="Times,serif" font-size="14.00" fill="#000000">b2</text>
</g>
<!-- b0&#45;&gt;b2 -->
<g id="edge6" class="edge">
<title>b0&#45;&gt;b2</title>
<path fill="none" stroke="#00ff00" d="M208.4589,-414.5797C226.3707,-405.661 248,-390.3645 248,-368.5 248,-368.5 248,-368.5 248,-257.5 248,-246.2927 243.1223,-235.2439 237.2366,-225.9912"/>
<polygon fill="#00ff00" stroke="#00ff00" points="240.0322,-223.8823 231.411,-217.724 234.3101,-227.9144 240.0322,-223.8823"/>
<text text-anchor="middle" x="265.5" y="-309.3" font-family="Times,serif" font-size="14.00" fill="#00ff00"> +12</text>
</g>
<!-- b1&#45;&gt;b2 -->
<g id="edge7" class="edge">
<title>b1&#45;&gt;b2</title>
<path fill="none" stroke="#000000" d="M190.1414,-295.1659C195.2498,-277.4459 203.1545,-250.0266 209.0678,-229.5147"/>
<polygon fill="#000000" stroke="#000000" points="212.4643,-230.368 211.8714,-219.7898 205.7382,-228.4289 212.4643,-230.368"/>
</g>
<!-- b2&#45;&gt;b3 -->
<g id="edge8" class="edge">
<title>b2&#45;&gt;b3</title>
<path fill="none" stroke="#000000" d="M211.8586,-184.1659C206.7502,-166.4459 198.8455,-139.0266 192.9322,-118.5147"/>
<polygon fill="#000000" stroke="#000000" points="196.2618,-117.4289 190.1286,-108.7898 189.5357,-119.368 196.2618,-117.4289"/>
</g>
<!-- b3&#45;&gt;end -->
<g id="edge11" class="edge">
<title>b3&#45;&gt;end</title>
<path fill="none" stroke="#000000" d="M175.7227,-74.0688C171.0005,-65.4509 165.1461,-54.7666 159.8185,-45.0437"/>
<polygon fill="#000000" stroke="#000000" points="162.801,-43.2032 154.9262,-36.1153 156.6622,-46.5669 162.801,-43.2032"/>
</g>
<!-- start -->
<g id="node10" class="node">
<title>start</title>
<polygon fill="none" stroke="#000000" points="172,-536 169,-540 148,-540 145,-536 118,-536 118,-500 172,-500 172,-536"/>
<text text-anchor="middle" x="145" y="-514.3" font-family="Times,serif" font-size="14.00" fill="#000000">load</text>
</g>
<!-- start&#45;&gt;a0 -->
<g id="edge12" class="edge">
<title>start&#45;&gt;a0</title>
<path fill="none" stroke="#000000" d="M137.4804,-499.8759C131.7427,-486.0465 123.7456,-466.7714 117.2476,-451.1096"/>
<polygon fill="#000000" stroke="#000000" points="120.2979,-449.3282 113.2328,-441.4329 113.8323,-452.0108 120.2979,-449.3282"/>
</g>
<!-- start&#45;&gt;b0 -->
<g id="edge13" class="edge">
<title>start&#45;&gt;b0</title>
<path fill="none" stroke="#000000" d="M152.7124,-499.8759C158.6533,-485.9148 166.9558,-466.4038 173.654,-450.6631"/>
<polygon fill="#000000" stroke="#000000" points="176.8867,-452.0049 177.5817,-441.4329 170.4456,-449.264 176.8867,-452.0049"/>
</g>
</g>
</svg>
